# xmcd
#
# Track frame offsets: 
#        150
#        12476
#        27063
#        39760
#        53102
#        63272
#        76829
#        90280
#        109486
#        126956
#        142636
#        160305
#        174409
#        185595
#        199660
#        220250
#        233421
#        247474
#        260114
#        273610
#
# Disc length: 4090 seconds
#
# Revision: 3
# Processed by: cddbd v1.5.2PL0 Copyright (c) Steve Scherf et al.
# Submitted via: ExactAudioCopy v0.99pb4
#
DISCID=120ff814
DTITLE=Various Artist -  Best Jazz 100 - Swing Classics In Hi-Fi [CD2)
DYEAR=2006
DGENRE=Jazz
TTITLE0=Billy May and his Orchestra - For Dancers Only
TTITLE1=Benny Goodman And His Orchestra - Stompin' At The Savoy
TTITLE2=Les Brown And His Orchestra - Leap Frog
TTITLE3=Duke Ellington And His Orchestra - Satin Doll
TTITLE4=Benny Goodman And His Orchestra - Let's Dance
TTITLE5=Billy May and his Orchestra - T'Ain't What You Do
TTITLE6=Glen Gray And The Casa Loma Orchestra - Opus No.1
TTITLE7=Stan Kenton And His Orchestra - Intermission Riff
TTITLE8=Woody Herman And His Orchestra - Sleep
TTITLE9=Benny Goodman And His Orchestra -Jumpin' At The Woodside
TTITLE10=Duke Ellington And His Orchestra - Harlem Air Shaft
TTITLE11=Harry James And His Orchestra - I'm Beginning To See The Ligh
TTITLE11=t
TTITLE12=Les Brown And His Orchestra - A Good Man Is Hard To Find
TTITLE13=Billy May and his Orchestra - Annie Laurie
TTITLE14=Stan Kenton And His Orchestra - The Peanut Vendor
TTITLE15=Glen Gray And The Casa Loma Orchestra - Come And Get It
TTITLE16=Billy May and his Orchestra - Margie
TTITLE17=Les Brown And His Orchestra - I've Got My Love To Keep Me
TTITLE18=Glen Gray And The Casa Loma Orchestra - Apollo Jumps
TTITLE19=Benny Goodman And His Orchestra - Sing, Sing, Sing
EXTD=YEAR: 2006
EXTT0=
EXTT1=
EXTT2=
EXTT3=
EXTT4=
EXTT5=
EXTT6=
EXTT7=
EXTT8=
EXTT9=
EXTT10=
EXTT11=
EXTT12=
EXTT13=
EXTT14=
EXTT15=
EXTT16=
EXTT17=
EXTT18=
EXTT19=
PLAYORDER=
